<svg width="128" height="128" viewBox="0 0 128 128" fill="none" xmlns="http://www.w3.org/2000/svg">
<path d="M55.4581 72.8472C58.8696 68.344 65.2968 63.4314 77.2918 66.1606C89.2868 68.8898 92.4084 76.7801 92.8112 84.807C92.9119 86.9216 92.6242 88.95 92.0056 90.8344C91.6316 91.9852 90.5095 92.7477 89.2868 92.7477H46.4447C39.1831 92.7477 33.7368 86.1031 35.161 78.9824L41.9336 45.118C43.0862 39.355 48.1462 35.2068 54.0233 35.2068C58.4476 35.2068 62.5328 37.5775 64.7279 41.4189L65.1747 42.2009C66.3279 44.2189 67.1419 46.6861 65.7822 48.5711C64.3255 50.5907 61.0248 52.5845 53.5477 51.4229" fill="#8876FC"/>
<path d="M55.4581 72.8472C58.8696 68.344 65.2968 63.4314 77.2918 66.1606C89.2868 68.8898 92.4084 76.7801 92.8112 84.807C92.9119 86.9216 92.6242 88.95 92.0056 90.8344C91.6316 91.9852 90.5095 92.7477 89.2868 92.7477H46.4447C39.1831 92.7477 33.7368 86.1031 35.161 78.9824L41.9336 45.118C43.0862 39.355 48.1462 35.2068 54.0233 35.2068C58.4476 35.2068 62.5328 37.5775 64.7279 41.4189L65.1747 42.2009C66.3279 44.2189 67.1419 46.6861 65.7822 48.5711C64.3255 50.5907 61.0248 52.5845 53.5477 51.4229" fill="#8876FC"/>
<path fill-rule="evenodd" clip-rule="evenodd" d="M92.5203 12.2815H35.4797C22.6677 12.2815 12.2815 22.6677 12.2815 35.4797V92.5203C12.2815 105.332 22.6677 115.719 35.4797 115.719H92.5203C105.332 115.719 115.719 105.332 115.719 92.5203V35.4797C115.719 22.6677 105.332 12.2815 92.5203 12.2815ZM35.4797 0C15.8848 0 0 15.8848 0 35.4797V92.5203C0 112.115 15.8848 128 35.4797 128H92.5203C112.115 128 128 112.115 128 92.5203V35.4797C128 15.8848 112.115 0 92.5203 0H35.4797Z" fill="#8876FC"/>
<path fill-rule="evenodd" clip-rule="evenodd" d="M92.7933 21.0149C94.3006 21.0149 95.5226 22.2368 95.5226 23.7441V33.5693H105.348C106.855 33.5693 108.077 34.7912 108.077 36.2985C108.077 37.8058 106.855 39.0277 105.348 39.0277H95.5226V48.8528C95.5226 50.3601 94.3006 51.5821 92.7933 51.5821C91.286 51.5821 90.0641 50.3601 90.0641 48.8528V39.0277H80.239C78.7317 39.0277 77.5098 37.8058 77.5098 36.2985C77.5098 34.7912 78.7317 33.5693 80.239 33.5693H90.0641V23.7441C90.0641 22.2368 91.286 21.0149 92.7933 21.0149Z" fill="#8876FC"/>
</svg>
